<svg id="Layer_1" fill="#212529" height="512" viewBox="0 0 512 512" width="512" xmlns="http://www.w3.org/2000/svg" data-name="Layer 1"><path d="m139.676 251.7a6 6 0 1 0 8.484-8.485l-63.036-63.036 29.194-28.87 2.775 2.774 39.824-39.824-12.728-12.728-39.824 39.824 1.469 1.468-33.434 33.066a6 6 0 0 0 -.023 8.509z"/><path d="m235.797 93.585h56.32v335.075h-56.32z" transform="matrix(.707 -.707 .707 .707 -107.331 263.126)"/><path d="m190.967 320.914a5.976 5.976 0 0 1 -4.242-1.757l-26.8-26.8-83.968 83.965a4 4 0 0 0 0 5.657l56.15 56.15a4.008 4.008 0 0 0 5.659 0l123.2-123.2-61.807-61.809-30.751 30.75 26.8 26.8a6 6 0 0 1 -4.242 10.243z"/><path d="m103.08 125.67 25.445-25.446-8.2-8.332a17.911 17.911 0 0 0 -12.845-5.392h-.013a18.042 18.042 0 0 0 -12.757 30.8z"/><path d="m350.461 101.817 15.861 15.861a6 6 0 1 1 -8.484 8.485l-15.861-15.863-52.2 52.2 26.8 26.8a6 6 0 1 1 -8.484 8.486l-26.8-26.8-25.339 25.339 61.808 61.808 122.454-122.455a4.006 4.006 0 0 0 0-5.657l-56.151-56.15a4.007 4.007 0 0 0 -5.658 0z"/><path d="m407.541 371.443-33.264 33.263 44.139 10.875z"/></svg>